<svg width="917" height="108" viewBox="0 0 917 108" fill="none" xmlns="http://www.w3.org/2000/svg">
<mask id="path-1-inside-1_2_11" fill="white">
<path d="M917 80.4121L889.412 108H0V26.5879L26.5879 0H917V80.4121Z"/>
</mask>
<path d="M917 80.4121L918.414 81.8263L919 81.2405V80.4121H917ZM889.412 108V110H890.241L890.826 109.414L889.412 108ZM0 108H-2V110H0V108ZM0 26.5879L-1.41421 25.1737L-2 25.7595V26.5879H0ZM26.5879 0V-2H25.7595L25.1737 -1.41421L26.5879 0ZM917 0H919V-2H917V0ZM917 80.4121L915.586 78.9979L887.998 106.586L889.412 108L890.826 109.414L918.414 81.8263L917 80.4121ZM889.412 108V106H0V108V110H889.412V108ZM0 108H2V26.5879H0H-2V108H0ZM0 26.5879L1.41421 28.0021L28.0021 1.41421L26.5879 0L25.1737 -1.41421L-1.41421 25.1737L0 26.5879ZM26.5879 0V2H917V0V-2H26.5879V0ZM917 0H915V80.4121H917H919V0H917Z" fill="#FF0000" mask="url(#path-1-inside-1_2_11)"/>
</svg>
