<svg width="511" height="133" viewBox="0 0 511 133" fill="none" xmlns="http://www.w3.org/2000/svg">
<mask id="path-1-inside-1_2_11" fill="white">
<path d="M511 100.257L484.412 133H0V32.7422L26.5879 0H511V100.257Z"/>
</mask>
<path d="M511 100.257L484.412 133H0V32.7422L26.5879 0H511V100.257Z" fill="#FF0000"/>
<path d="M511 100.257L512.553 101.518L513 100.967V100.257H511ZM484.412 133V135H485.364L485.965 134.261L484.412 133ZM0 133H-2V135H0V133ZM0 32.7422L-1.55258 31.4814L-2 32.0324V32.7422H0ZM26.5879 0V-2H25.6356L25.0353 -1.26075L26.5879 0ZM511 0H513V-2H511V0ZM511 100.257L509.447 98.9961L482.86 131.739L484.412 133L485.965 134.261L512.553 101.518L511 100.257ZM484.412 133V131H0V133V135H484.412V133ZM0 133H2V32.7422H0H-2V133H0ZM0 32.7422L1.55258 34.0029L28.1405 1.26075L26.5879 0L25.0353 -1.26075L-1.55258 31.4814L0 32.7422ZM26.5879 0V2H511V0V-2H26.5879V0ZM511 0H509V100.257H511H513V0H511Z" fill="#FF0000" mask="url(#path-1-inside-1_2_11)"/>
</svg>
