<?xml version="1.0" encoding="UTF-8"?>
<svg id="Layer_1" data-name="Layer 1" xmlns="http://www.w3.org/2000/svg" viewBox="0 0 612 612">
  <defs>
    <style>
      .cls-1, .cls-2 {
        stroke-width: 0px;
      }

      .cls-2 {
        fill: #fff;
      }
    </style>
  </defs>
  <path class="cls-2" d="m612,612H0V0h612v612ZM283.82,222.58c.25.08.51.16.76.24v292.51c50.15-63.1,99.8-125.58,149.61-188.25h113.78c-11.42-14.85-22.5-29.27-33.44-43.5h-102.78c-27.78,35.19-55.43,70.23-83.08,105.26-.21-.09-.41-.18-.62-.27V96.3c-50.3,63.08-100.07,125.48-149.96,188.04h-113.5c11.39,14.81,22.47,29.23,33.4,43.45h102.79c27.77-35.18,55.4-70.2,83.04-105.21Z"/>
  <path class="cls-1" d="m283.82,222.58c-27.64,35.02-55.28,70.04-83.04,105.21h-102.79c-10.93-14.22-22.01-28.64-33.4-43.45h113.5c49.9-62.56,99.66-124.97,149.96-188.04v292.25c.21.09.41.18.62.27,27.65-35.03,55.31-70.07,83.08-105.26h102.78c10.94,14.23,22.02,28.65,33.44,43.5h-113.78c-49.81,62.67-99.46,125.15-149.61,188.25V222.82c-.25-.08-.51-.16-.76-.24Z"/>
</svg>